<?xml version="1.0" encoding="UTF-8" standalone="no"?>
<!-- Created with Inkscape (http://www.inkscape.org/) -->

<svg
   xmlns:dc="http://purl.org/dc/elements/1.1/"
   xmlns:cc="http://creativecommons.org/ns#"
   xmlns:rdf="http://www.w3.org/1999/02/22-rdf-syntax-ns#"
   xmlns:svg="http://www.w3.org/2000/svg"
   xmlns="http://www.w3.org/2000/svg"
   xmlns:sodipodi="http://sodipodi.sourceforge.net/DTD/sodipodi-0.dtd"
   xmlns:inkscape="http://www.inkscape.org/namespaces/inkscape"
   width="216.22832"
   height="225.00021"
   viewBox="0 0 57.210408 59.531305"
   version="1.1"
   id="svg828"
   inkscape:version="0.92.4 (5da689c313, 2019-01-14)"
   sodipodi:docname="LNJPIT, Chapra Logo.svg">
  <defs
     id="defs822" />
  <sodipodi:namedview
     id="base"
     pagecolor="#ffffff"
     bordercolor="#666666"
     borderopacity="1.0"
     inkscape:pageopacity="0.0"
     inkscape:pageshadow="2"
     inkscape:zoom="1.5654999"
     inkscape:cx="108.11416"
     inkscape:cy="112.50011"
     inkscape:document-units="mm"
     inkscape:current-layer="layer1"
     showgrid="false"
     inkscape:window-width="1366"
     inkscape:window-height="705"
     inkscape:window-x="-8"
     inkscape:window-y="-8"
     inkscape:window-maximized="1"
     units="px"
     fit-margin-top="5"
     fit-margin-left="5"
     fit-margin-right="5"
     fit-margin-bottom="5" />
  <metadata
     id="metadata825">
    <rdf:RDF>
      <cc:Work
         rdf:about="">
        <dc:format>image/svg+xml</dc:format>
        <dc:type
           rdf:resource="http://purl.org/dc/dcmitype/StillImage" />
        <dc:title></dc:title>
      </cc:Work>
    </rdf:RDF>
  </metadata>
  <g
     inkscape:label="Layer 1"
     inkscape:groupmode="layer"
     id="layer1"
     transform="translate(-7.639209,-233.91722)">
    <path
       style="fill:#000000;stroke-width:0.06178314"
       d="m 19.346632,291.71347 c -0.06635,-0.22688 -0.652836,-2.26137 -1.303305,-4.52109 -0.650466,-2.25972 -1.336199,-4.63683 -1.523849,-5.28246 -0.18765,-0.64563 -0.571094,-1.97274 -0.852098,-2.94912 l -0.510918,-1.77525 0.254301,-0.14816 c 0.139866,-0.0815 0.685238,-0.36311 1.211941,-0.62583 0.526701,-0.26272 0.966119,-0.48533 0.976487,-0.49469 0.01037,-0.009 -0.186115,-0.3051 -0.436628,-0.65719 -0.877941,-1.23394 -1.761365,-2.68647 -2.417333,-3.97462 l -0.403292,-0.79196 -1.315497,0.005 c -0.723524,0.003 -1.620039,-0.0141 -1.992256,-0.0374 l -0.676759,-0.0424 -0.17373,-0.58694 c -0.2466016,-0.83313 -0.6042709,-2.12174 -0.6042709,-2.17707 0,-0.11997 0.4883649,-0.56534 0.9318679,-0.84983 0.486168,-0.31187 1.68536,-0.90523 2.11811,-1.04805 0.252997,-0.0835 0.321696,-0.23882 0.269308,-0.60885 -0.07446,-0.52592 -0.08878,-0.5375 -0.890102,-0.72026 -1.633303,-0.37251 -2.7764685,-0.66689 -2.9037808,-0.74775 -0.1318196,-0.0837 -0.1349229,-0.11685 -0.140924,-1.50377 -0.00605,-1.40004 -0.00434,-1.41987 0.1347897,-1.55147 0.4551714,-0.43057 1.9116711,-0.86624 3.2425261,-0.96989 0.497953,-0.0388 0.46159,0.006 0.544844,-0.67208 0.03833,-0.31224 0.03687,-0.31572 -0.166636,-0.39674 -1.068425,-0.42538 -3.2636095,-1.81131 -3.2635229,-2.06043 2.32e-5,-0.0724 0.1243537,-0.63068 0.2762903,-1.2406 0.2091184,-0.83949 0.3111186,-1.14384 0.4197646,-1.25248 0.209874,-0.20988 1.23716,-0.33772 2.80015,-0.34848 l 1.241168,-0.009 0.134673,-0.33981 0.13467,-0.33981 -0.486044,-0.46337 c -2.159375,-2.05866 -2.234054,-2.14207 -2.234512,-2.49578 -2.11e-4,-0.16133 0.41451,-0.9254 1.122535,-2.06816 0.303898,-0.4905 0.380863,-0.52631 0.946724,-0.44054 0.258641,0.0392 0.892752,0.21016 1.409132,0.37989 0.516381,0.16973 1.144211,0.37513 1.39518,0.45645 l 0.456303,0.14783 0.204223,-0.20422 c 0.369871,-0.36987 0.359791,-0.41527 -0.341133,-1.53656 -0.345244,-0.55229 -0.765815,-1.28219 -0.934602,-1.622 -0.413567,-0.8326 -0.404871,-0.86168 0.551089,-1.84277 0.732993,-0.75227 1.16852,-1.09262 1.396174,-1.09106 0.183743,0.001 0.900046,0.40519 2.144727,1.20943 0.600086,0.38774 1.137225,0.70498 1.193641,0.70498 0.163161,0 0.645696,-0.36248 0.682001,-0.51232 0.01817,-0.075 -0.105094,-0.61395 -0.273938,-1.19761 -0.44836,-1.5499 -0.645894,-2.39183 -0.602104,-2.5663 0.02108,-0.084 0.105321,-0.21972 0.187172,-0.3015 0.233851,-0.23365 2.205724,-1.29167 2.407332,-1.29167 0.151627,0 0.512576,0.31739 1.651451,1.45218 1.264963,1.26041 1.216185,1.23243 1.830478,1.05001 l 0.312174,-0.0927 0.04189,-0.3158 c 0.02305,-0.1737 0.03727,-1.05217 0.03162,-1.95216 -0.0082,-1.31194 0.0065,-1.65303 0.07418,-1.72047 0.122859,-0.12239 1.647806,-0.60816 2.486933,-0.79222 l 0.301855,-0.0662 0.196219,0.22699 c 0.347602,0.40212 1.058718,1.48258 1.393795,2.11771 0.599596,1.13653 0.643024,1.17994 1.081602,1.08102 0.274614,-0.0619 0.309737,-0.10685 0.434597,-0.55586 0.314582,-1.13125 0.927722,-2.88014 1.100237,-3.13828 l 0.194272,-0.29068 1.272116,-0.0167 c 1.209407,-0.0159 1.280185,-0.0103 1.435925,0.11219 0.131377,0.10334 0.229958,0.33909 0.497844,1.19055 0.35328,1.12287 0.593777,2.07188 0.593777,2.34302 0,0.0898 0.02293,0.17745 0.05097,0.19478 0.02804,0.0173 0.301832,0.0504 0.60844,0.0736 l 0.557467,0.0421 0.279896,-0.51787 c 0.821399,-1.51977 1.393141,-2.43859 1.694337,-2.72292 l 0.176072,-0.16621 1.290506,0.39257 c 0.709775,0.21591 1.310469,0.42487 1.334869,0.46435 0.02441,0.0395 0.08049,0.44604 0.124644,0.90345 0.07587,0.78605 0.05293,2.44278 -0.03985,2.87715 -0.03191,0.14938 -0.0046,0.1812 0.277869,0.32436 0.548481,0.27794 0.54286,0.28083 1.680048,-0.86449 1.095132,-1.10296 1.77162,-1.69523 1.936281,-1.69523 0.143838,0 1.695047,0.80747 2.2141,1.15254 0.235513,0.15657 0.445238,0.32906 0.466062,0.38332 0.06583,0.17155 -0.277606,1.66774 -0.632676,2.75632 -0.188113,0.57671 -0.340489,1.09105 -0.338613,1.14299 0.0037,0.10332 0.594055,0.55779 0.724532,0.55779 0.04456,0 0.566431,-0.2932 1.1597,-0.65156 1.070034,-0.64634 2.078502,-1.16814 2.375394,-1.22906 0.132561,-0.0272 0.298221,0.10725 1.16855,0.94845 l 1.014094,0.98014 -0.141701,0.3789 c -0.171227,0.45786 -0.58791,1.17074 -1.349388,2.30859 -0.567782,0.84842 -0.569264,0.85164 -0.474943,1.03403 0.176682,0.34167 0.464378,0.61712 0.644549,0.61712 0.09281,0 0.472212,-0.0947 0.843119,-0.21051 1.137153,-0.35497 2.32739,-0.67228 2.636661,-0.70294 0.272794,-0.0271 0.30867,-0.0136 0.494265,0.18552 0.323112,0.3466 1.281326,2.07886 1.281326,2.31638 0,0.16943 -0.09405,0.30637 -0.569453,0.82918 -0.3132,0.34443 -0.823389,0.81626 -1.133753,1.04852 -0.703789,0.52667 -0.953472,0.77951 -0.953472,0.96553 0,0.11719 0.194355,0.5896 0.28347,0.68902 0.01164,0.013 0.868691,0.0183 1.904581,0.0118 l 1.883434,-0.0118 0.11939,0.2353 c 0.280646,0.55312 0.748578,2.29883 0.750809,2.80102 0.0011,0.25791 -0.08103,0.33895 -0.738654,0.72851 -0.43605,0.2583 -1.894198,0.99157 -2.336115,1.17479 -0.191298,0.0793 -0.198769,0.0958 -0.198769,0.43835 0,0.26328 0.02816,0.37954 0.108121,0.44657 0.05947,0.0498 0.525156,0.16718 1.034868,0.26076 0.836648,0.1536 1.381185,0.30795 2.368514,0.67137 l 0.329666,0.12134 -0.02075,1.59487 c -0.01141,0.87717 -0.03697,1.61104 -0.05679,1.63082 -0.05488,0.0548 -1.818589,0.5301 -2.332604,0.62866 -0.249348,0.0478 -0.547785,0.0869 -0.663192,0.0869 -0.33626,0 -0.590942,0.26997 -0.629074,0.66684 -0.04365,0.45424 0.05219,0.56465 0.800965,0.92281 0.552837,0.26444 0.946962,0.48401 2.048075,1.141 0.131145,0.0783 0.260052,0.19834 0.286462,0.26687 0.03162,0.082 -0.04401,0.45128 -0.221443,1.08121 -0.41251,1.46444 -0.45255,1.585 -0.577719,1.73951 -0.116328,0.1436 -0.118848,0.14381 -1.496607,0.13056 -0.759043,-0.007 -1.538094,-0.0307 -1.731223,-0.0519 l -0.351148,-0.0386 -0.129174,0.25321 c -0.07105,0.13926 -0.201644,0.45456 -0.290211,0.70065 -0.357137,0.99236 -1.267242,2.71808 -1.955141,3.70729 -0.136174,0.19583 -0.236364,0.36373 -0.22264,0.37312 0.01374,0.009 0.261272,0.1113 0.550107,0.22646 1.327619,0.52931 3.15094,1.45558 3.15094,1.60072 0,0.0496 -0.739452,2.65029 -1.643227,5.77931 -0.903775,3.12902 -1.763243,6.10616 -1.909929,6.61587 -0.146687,0.50971 -0.366416,1.26636 -0.488289,1.68144 -0.121874,0.41508 -0.221591,0.76854 -0.221591,0.78547 0,0.0169 -0.507392,-0.22994 -1.127539,-0.54859 -1.792818,-0.92118 -3.421577,-1.51236 -5.112558,-1.85567 -1.316283,-0.26724 -1.810142,-0.30982 -3.58342,-0.30896 -1.858714,10e-4 -2.704595,0.0906 -4.368761,0.46311 -0.433501,0.097 -0.801788,0.16284 -0.818415,0.14621 -0.02589,-0.0259 0.967908,-4.0684 1.387855,-5.64547 0.07691,-0.28884 0.26643,-1.01169 0.421142,-1.60636 0.154713,-0.59466 0.451991,-1.73413 0.660618,-2.53215 0.20863,-0.79802 0.596982,-2.32222 0.863014,-3.38711 0.26603,-1.06489 0.497106,-1.94958 0.51351,-1.96599 0.05412,-0.0541 1.171556,-0.26639 2.072904,-0.39378 1.038181,-0.14674 2.721606,-0.23787 3.686576,-0.19959 l 0.680567,0.027 0.348962,-0.48516 c 1.82545,-2.5379 2.907948,-5.40423 3.263186,-8.64054 0.07982,-0.72718 0.07898,-2.6276 -0.0014,-3.43786 -0.399899,-4.02536 -2.097857,-7.69526 -4.905541,-10.60263 -4.886497,-5.05998 -12.30527,-6.76459 -18.870138,-4.33577 -4.994048,1.84766 -8.90361,5.84017 -10.643824,10.86967 -1.335991,3.86122 -1.295932,7.98514 0.115523,11.89325 0.538608,1.49133 1.840079,3.85345 2.592756,4.70577 l 0.17273,0.19559 0.40159,-0.0583 c 1.368471,-0.19854 3.755731,-0.16792 5.377151,0.069 0.816987,0.11935 2.036216,0.3492 2.078926,0.39191 0.01084,0.0108 0.295146,1.11557 0.631808,2.45497 0.336663,1.33941 0.991834,3.88101 1.455938,5.64801 0.919435,3.5006 1.762493,6.84646 1.762493,6.99486 0,0.0678 -0.0384,0.0827 -0.139015,0.0538 -0.412329,-0.11845 -1.911397,-0.41127 -2.610336,-0.50988 -0.99447,-0.1403 -3.888301,-0.16085 -4.726412,-0.0336 -2.398403,0.36428 -4.252017,0.96932 -6.469866,2.11185 l -1.065137,0.5487 z m 2.696243,-1.40978 c 1.364639,-0.56775 2.962732,-1.02195 4.47048,-1.27057 0.725704,-0.11967 1.062969,-0.13679 2.713108,-0.13777 1.965629,-0.001 2.515802,0.0463 3.943901,0.34013 0.32212,0.0663 0.600313,0.10586 0.618207,0.088 0.0475,-0.0475 -0.314446,-1.48475 -2.108101,-8.37116 -0.45581,-1.75001 -0.965012,-3.73364 -1.131557,-4.40808 -0.195287,-0.79084 -0.336218,-1.24413 -0.396898,-1.27661 -0.159328,-0.0853 -1.899177,-0.35873 -2.7747,-0.43612 -1.177892,-0.10411 -3.569891,-0.0429 -4.607189,0.11798 -2.092787,0.32449 -3.781446,0.8694 -5.919151,1.91005 -1.055872,0.514 -1.098504,0.54181 -1.06114,0.69234 0.03716,0.14972 3.610476,12.55791 3.865839,13.42398 l 0.122736,0.41625 0.861283,-0.43146 c 0.473703,-0.23731 1.105135,-0.53292 1.403182,-0.65692 z m -1.345449,-1.78713 -0.151493,-0.16226 0.21624,-0.18456 c 0.41732,-0.3562 1.475627,-1.02068 2.177567,-1.36723 2.42936,-1.19939 4.987507,-1.45286 7.278584,-0.72121 0.32848,0.1049 1.190995,0.46401 1.289743,0.53698 0.01459,0.0108 -0.01906,0.11519 -0.07477,0.23202 l -0.101295,0.21242 -0.597762,-0.24977 c -2.533402,-1.05855 -5.269087,-0.82091 -8.075975,0.70151 -0.312262,0.16937 -0.814624,0.48817 -1.116357,0.70845 -0.301737,0.22028 -0.581096,0.41297 -0.620797,0.4282 -0.0397,0.0152 -0.140361,-0.0453 -0.22368,-0.13455 z m -0.47825,-2.74583 -0.141407,-0.17914 0.357648,-0.2839 c 1.23558,-0.98077 3.09801,-1.8477 4.744252,-2.20836 0.845726,-0.18529 2.814322,-0.19835 3.611065,-0.024 0.653205,0.14297 1.282828,0.34728 1.845491,0.59886 l 0.435583,0.19477 -0.100044,0.20979 c -0.05502,0.11539 -0.116587,0.20979 -0.136811,0.20979 -0.02022,0 -0.263289,-0.0955 -0.540142,-0.21229 -1.449557,-0.61135 -2.964162,-0.7954 -4.575972,-0.55607 -1.596256,0.23702 -3.453608,1.03722 -4.854173,2.09132 -0.252257,0.18985 -0.468874,0.34365 -0.481366,0.34177 -0.01249,-0.002 -0.08635,-0.084 -0.164124,-0.18257 z m -0.333885,-2.88772 c -0.243964,-0.28408 -0.255058,-0.27036 0.784207,-0.97008 2.023063,-1.36208 4.166858,-2.01444 6.332772,-1.92707 1.004742,0.0405 1.552019,0.1353 2.409542,0.41724 0.4712,0.15493 1.123557,0.4313 1.222867,0.51807 0.0099,0.009 -0.02832,0.11313 -0.08503,0.23208 l -0.10313,0.21626 -0.446275,-0.20619 c -1.852226,-0.85578 -4.151297,-0.92097 -6.373412,-0.18071 -1.026575,0.34198 -2.565496,1.17141 -3.338426,1.79931 -0.141642,0.11506 -0.269393,0.20921 -0.283893,0.20921 -0.0145,0 -0.06815,-0.0487 -0.119217,-0.10812 z m -0.780493,-2.38263 c -0.07388,-0.0786 -0.134336,-0.16456 -0.134336,-0.1909 0,-0.14398 1.464904,-1.11566 2.316869,-1.53681 1.759462,-0.86973 3.212535,-1.20181 4.973543,-1.13664 1.039391,0.0385 1.58115,0.13262 2.440433,0.42411 0.453627,0.15389 1.101737,0.43356 1.193882,0.51518 0.03984,0.0353 -0.179255,0.3999 -0.240292,0.3999 -0.03446,0 -0.176009,-0.0578 -0.314551,-0.1285 -0.138544,-0.0707 -0.538152,-0.22228 -0.888019,-0.33689 -1.661051,-0.54412 -3.534747,-0.52158 -5.404178,0.065 -1.025791,0.32188 -2.708189,1.21535 -3.501146,1.85935 -0.141641,0.11504 -0.268855,0.20916 -0.282698,0.20916 -0.01385,0 -0.08562,-0.0643 -0.159507,-0.14299 z m -0.06178,-2.16242 c -0.219692,-0.23385 -0.271856,-0.17566 0.823302,-0.9184 3.077478,-2.08717 6.607385,-2.52738 9.576387,-1.19425 0.203884,0.0915 0.378841,0.17434 0.388792,0.18398 0.0099,0.01 -0.02859,0.11541 -0.08564,0.23506 l -0.103733,0.21753 -0.384754,-0.17263 c -1.158231,-0.51966 -2.052978,-0.70328 -3.42898,-0.7037 -1.127363,-5.7e-4 -1.793063,0.10637 -2.903806,0.46549 -1.064677,0.34423 -2.693912,1.22361 -3.521639,1.9008 -0.194106,0.15881 -0.197837,0.15866 -0.359929,-0.0139 z m 36.724343,10.76181 c 0.356555,-1.23596 1.232615,-4.27677 1.946798,-6.75737 0.714183,-2.48059 1.325681,-4.5933 1.358889,-4.69491 0.07609,-0.23281 0.07816,-0.23121 -0.993855,-0.77034 -2.848254,-1.43241 -5.626869,-2.10325 -8.711047,-2.10313 -1.642387,6e-5 -3.084772,0.14137 -4.417873,0.43279 l -0.308914,0.0675 -0.631867,2.51461 c -0.347528,1.38303 -0.884303,3.47379 -1.192833,4.64613 -1.031278,3.91857 -1.780264,6.91971 -1.726934,6.91971 0.02905,0 0.256192,-0.0434 0.504776,-0.0965 1.624458,-0.34663 4.198389,-0.50005 5.744158,-0.34236 2.464015,0.25135 4.607641,0.88957 6.96589,2.07396 0.427989,0.21494 0.786344,0.38321 0.796344,0.37392 0.01,-0.009 0.309913,-1.02813 0.666468,-2.26409 z m -2.228238,-0.7418 c -0.979623,-0.7416 -2.420987,-1.46722 -3.584416,-1.80451 -2.006131,-0.58158 -4.06635,-0.49583 -5.734289,0.2387 -0.278192,0.12251 -0.538679,0.23713 -0.57886,0.25471 -0.06751,0.0295 -0.266754,-0.26909 -0.266754,-0.39982 0,-0.0676 1.057434,-0.51153 1.544577,-0.64846 2.255616,-0.63405 4.699214,-0.35137 7.041131,0.81452 0.713851,0.35538 1.734512,0.99611 2.164559,1.35882 l 0.216243,0.18237 -0.149785,0.16044 c -0.08238,0.0882 -0.16859,0.16043 -0.191579,0.16043 -0.02302,0 -0.230361,-0.14274 -0.460827,-0.3172 z m 0.678622,-2.59715 c -2.986985,-2.29314 -6.560729,-2.95229 -9.474055,-1.74743 -0.759858,0.31426 -0.711464,0.31021 -0.826423,0.0691 l -0.101831,-0.21354 0.435584,-0.19477 c 0.562443,-0.25148 1.230696,-0.46851 1.863293,-0.60512 0.780354,-0.16852 2.75638,-0.14956 3.60865,0.0346 1.410816,0.30489 2.960458,0.98322 4.210853,1.84322 0.845858,0.58177 0.895342,0.6433 0.684785,0.85156 l -0.153725,0.15203 z m 0.432482,-2.92707 c -0.77732,-0.64016 -2.385034,-1.51741 -3.398071,-1.85417 -2.221783,-0.73856 -4.512034,-0.67245 -6.36515,0.18374 l -0.446275,0.20619 -0.103128,-0.21626 c -0.05673,-0.11895 -0.09499,-0.22338 -0.08504,-0.23208 0.09543,-0.0834 0.744853,-0.36183 1.191977,-0.51108 1.045677,-0.34904 1.488664,-0.41377 2.811132,-0.41073 1.329251,0.003 1.885103,0.0879 3.027375,0.46195 1.122924,0.36773 2.960936,1.36351 3.76342,2.03889 l 0.149109,0.12549 -0.121976,0.16338 c -0.163231,0.21863 -0.206589,0.22321 -0.423374,0.0447 z m 0.308917,-2.65826 c -0.732006,-0.54151 -2.201957,-1.30342 -3.02063,-1.56567 -1.149641,-0.36826 -1.752526,-0.46236 -2.972337,-0.46392 -1.420654,-0.002 -2.19903,0.1556 -3.371778,0.6819 l -0.379272,0.17021 -0.115606,-0.15041 c -0.06359,-0.0827 -0.116225,-0.18129 -0.11698,-0.21903 -0.0032,-0.16087 1.283853,-0.64834 2.284602,-0.86528 0.800437,-0.17352 2.707995,-0.16026 3.55948,0.0247 1.267375,0.27537 2.627989,0.83235 3.792713,1.55258 0.56506,0.34941 1.293401,0.87725 1.295908,0.93917 0.0023,0.0596 -0.249714,0.36421 -0.296416,0.35817 -0.02302,-0.003 -0.319876,-0.21108 -0.659684,-0.46246 z m 0.525156,-1.82365 c -0.41777,-0.34179 -1.524906,-1.03167 -2.131519,-1.32819 -0.812131,-0.39698 -1.931905,-0.77141 -2.780241,-0.92966 -0.817595,-0.15252 -2.308306,-0.15355 -3.073157,-0.002 -0.559851,0.11083 -1.637614,0.46209 -2.026404,0.66043 l -0.223069,0.1138 -0.10348,-0.17518 c -0.05692,-0.0963 -0.10348,-0.20219 -0.10348,-0.23522 0,-0.0798 1.096665,-0.5319 1.673402,-0.68992 2.229357,-0.61082 4.644604,-0.30248 7.050435,0.90011 0.566352,0.28309 1.928476,1.17197 2.119632,1.38319 0.109214,0.12068 0.108286,0.12873 -0.03203,0.27809 -0.173165,0.18432 -0.17484,0.18444 -0.370089,0.0247 z m -37.033254,-2.75076 c 0.168336,-0.0423 0.187818,-0.1239 0.06352,-0.2662 -0.318007,-0.36408 -1.456345,-2.23714 -1.91792,-3.1558 -1.151291,-2.29141 -1.951839,-5.17081 -2.203844,-7.92677 -0.09466,-1.03524 -0.0383,-3.83963 0.09641,-4.79712 0.720311,-5.11967 2.966123,-9.56435 6.620021,-13.10168 5.898279,-5.71012 14.470461,-7.67456 22.327348,-5.11664 2.639607,0.85936 5.196424,2.28646 7.383087,4.12091 0.810749,0.68016 2.207594,2.09581 2.859282,2.89778 2.907207,3.57763 4.581906,7.74222 4.961916,12.33918 0.08956,1.0834 0.04031,3.43448 -0.09383,4.47927 -0.419822,3.26986 -1.549896,6.4216 -3.272189,9.12602 l -0.518429,0.81406 0.286484,0.0976 c 0.339992,0.11585 0.272124,0.17868 0.845909,-0.7831 0.623667,-1.0454 1.000182,-1.84234 1.482582,-3.13806 0.09488,-0.25486 0.289444,-0.71647 0.432363,-1.02581 l 0.25985,-0.56243 1.475136,-0.006 c 0.811326,-0.003 1.624621,-0.028 1.807318,-0.0554 l 0.332175,-0.0497 0.117463,-0.43249 c 0.0646,-0.23786 0.149597,-0.59342 0.188879,-0.79012 0.06509,-0.32594 0.06084,-0.3682 -0.04804,-0.4769 -0.179161,-0.17887 -1.329911,-0.84684 -2.179558,-1.26516 -0.661526,-0.32571 -0.751186,-0.38831 -0.752211,-0.52516 -8.51e-4,-0.0855 0.07316,-0.60717 0.163997,-1.15936 0.125697,-0.76412 0.186725,-1.00397 0.255448,-1.00397 0.04966,0 0.219135,-0.041 0.376609,-0.0912 0.157472,-0.0501 0.606042,-0.1488 0.996824,-0.21927 1.293305,-0.23323 1.671095,-0.31141 1.809352,-0.3744 0.131772,-0.06 0.1362,-0.0901 0.120177,-0.8163 -0.0092,-0.41468 -0.03142,-0.87022 -0.04949,-1.01231 l -0.03285,-0.25834 -0.413887,-0.0931 c -0.227636,-0.0512 -0.664106,-0.13925 -0.969934,-0.19569 -0.305826,-0.0564 -0.583848,-0.1231 -0.617828,-0.14813 -0.03399,-0.025 -0.349723,-0.097 -0.701651,-0.1599 -0.52737,-0.0943 -0.649071,-0.1368 -0.692236,-0.24185 -0.04865,-0.11841 -0.186149,-1.00207 -0.271338,-1.74383 l -0.03663,-0.31893 1.12895,-0.55644 c 1.175488,-0.57937 1.880821,-0.99748 1.939152,-1.14948 0.04251,-0.1108 -0.175462,-0.97596 -0.387447,-1.5378 l -0.159112,-0.42172 -1.058569,0.051 c -0.582213,0.0281 -1.3916,0.051 -1.798635,0.051 h -0.740067 l -0.19582,-0.52516 c -0.107704,-0.28884 -0.28207,-0.68894 -0.387477,-0.88912 -0.105411,-0.20017 -0.191656,-0.39961 -0.191656,-0.44318 0,-0.13815 0.297926,-0.44072 0.977468,-0.99273 1.290328,-1.04815 1.695958,-1.53146 1.583275,-1.88649 -0.0237,-0.0747 -0.21012,-0.40874 -0.414262,-0.74237 -0.317653,-0.51914 -0.394483,-0.60653 -0.532871,-0.60616 -0.380813,0.001 -1.976852,0.45492 -2.855297,0.81202 -0.461267,0.18751 -0.473223,0.189 -0.689811,0.0862 -0.121227,-0.0575 -0.299229,-0.21978 -0.395565,-0.36055 -0.09633,-0.14078 -0.338451,-0.45151 -0.538035,-0.69051 -0.569998,-0.68259 -0.572076,-0.60291 0.03665,-1.40683 1.022149,-1.3499 1.516244,-2.19916 1.444884,-2.48347 -0.04941,-0.19688 -1.057026,-1.20916 -1.202717,-1.20829 -0.05571,2.9e-4 -0.249087,0.0694 -0.429735,0.15351 -0.352873,0.16428 -2.021144,1.12577 -2.649127,1.52679 -0.256586,0.16386 -0.411849,0.22747 -0.471183,0.19305 -0.04867,-0.0282 -0.425542,-0.31547 -0.83749,-0.63829 -0.660819,-0.51784 -0.748977,-0.60876 -0.748855,-0.77229 6.2e-5,-0.10194 0.180832,-0.71106 0.401684,-1.35361 0.403274,-1.17327 0.55749,-1.91175 0.456042,-2.18381 -0.0545,-0.14616 -0.736707,-0.61882 -1.178905,-0.8168 -0.236118,-0.10572 -0.275522,-0.10772 -0.447788,-0.0228 -0.103889,0.0512 -0.747552,0.66081 -1.430364,1.35465 -0.68281,0.69385 -1.258395,1.26154 -1.279076,1.26154 -0.04686,0 -1.331119,-0.51484 -1.723925,-0.69109 -0.159691,-0.0717 -0.303867,-0.16551 -0.320387,-0.20856 -0.01649,-0.043 -0.0048,-0.49075 0.02609,-0.99488 0.07764,-1.26787 0.07354,-2.45543 -0.0091,-2.63681 -0.08327,-0.18275 -0.219566,-0.24826 -0.853039,-0.41 -0.659559,-0.1684 -0.813258,-0.1615 -1.003253,0.045 -0.273245,0.29703 -0.840329,1.2598 -1.136569,1.92961 -0.417515,0.94402 -0.564427,1.17499 -0.747382,1.17499 -0.15819,0 -2.071477,-0.29924 -2.10081,-0.32857 -0.0092,-0.009 -0.128061,-0.55007 -0.264133,-1.20192 -0.398931,-1.91114 -0.494024,-2.20056 -0.770068,-2.34376 -0.260483,-0.13514 -1.35513,-0.19142 -1.493257,-0.0768 -0.22679,0.18822 -0.69781,1.40667 -1.019537,2.63737 -0.18199,0.69616 -0.307988,0.96314 -0.489187,1.03652 -0.161858,0.0656 -1.318424,0.21306 -1.679696,0.21423 l -0.350117,10e-4 -0.681276,-1.37467 c -0.722133,-1.45711 -0.973332,-1.83804 -1.212082,-1.83804 -0.228436,0 -1.664089,0.38152 -1.719601,0.45698 -0.02759,0.0375 -0.03908,0.90574 -0.02554,1.92943 l 0.02462,1.86126 -0.951432,0.372 c -0.642534,0.25123 -0.995847,0.35903 -1.088234,0.33205 -0.07524,-0.022 -0.560153,-0.50338 -1.077585,-1.06978 -0.981511,-1.07441 -1.48982,-1.53418 -1.696134,-1.53418 -0.152936,0 -0.848628,0.36614 -1.236626,0.65083 -0.21115,0.15493 -0.29347,0.25764 -0.29347,0.36615 0,0.42742 0.326512,1.56067 0.754848,2.61991 l 0.308936,0.76398 -0.120266,0.16277 c -0.24758,0.33508 -1.205762,1.02024 -1.673891,1.19694 -0.18558,0.07 -0.21886,0.0551 -0.828141,-0.37171 -0.864177,-0.6054 -2.211094,-1.37297 -2.409259,-1.37297 -0.08922,0 -0.25471,0.0743 -0.367752,0.16521 -0.317603,0.25528 -0.918303,0.84203 -0.983682,0.96084 -0.107207,0.19482 0.705115,1.64515 1.626348,2.90368 0.184572,0.25216 0.286353,0.44641 0.258973,0.49427 -0.132322,0.23132 -0.916577,1.22433 -1.132658,1.43415 l -0.250461,0.24321 -0.85056,-0.32069 c -0.967319,-0.36471 -1.942392,-0.6284 -2.393187,-0.64718 -0.30671,-0.0128 -0.307159,-0.0125 -0.543789,0.32702 -0.130253,0.18689 -0.331509,0.53115 -0.447235,0.76502 -0.198218,0.40059 -0.205125,0.43544 -0.119223,0.60155 0.156464,0.30257 0.459507,0.60545 1.417211,1.41644 0.50971,0.43163 0.976308,0.84014 1.03688,0.9078 0.122813,0.13719 0.140845,0.0726 -0.42445,1.52076 l -0.237619,0.60873 -0.403647,-0.0375 c -0.222006,-0.0206 -1.030604,-0.0547 -1.796887,-0.0758 l -1.393242,-0.0382 -0.159908,0.14665 c -0.121755,0.11166 -0.198704,0.30311 -0.322518,0.80243 -0.08944,0.36068 -0.145009,0.70166 -0.123493,0.75773 0.0531,0.13837 1.072505,0.89794 1.577914,1.17572 0.225339,0.12385 0.635206,0.30748 0.910817,0.40806 0.728093,0.26573 0.749214,0.28377 0.749214,0.63996 0,0.3349 -0.168367,1.46893 -0.249948,1.6835 -0.05684,0.14949 -0.469561,0.26226 -1.449088,0.39593 -0.522587,0.0713 -1.501393,0.3156 -1.893958,0.47267 -0.3014719,0.12063 -0.3314453,0.27057 -0.2604721,1.30302 l 0.053801,0.78264 0.7413981,0.23475 c 0.407768,0.12911 1.033323,0.27691 1.390122,0.32846 0.356798,0.0516 0.760861,0.13446 0.89792,0.18426 0.137059,0.0498 0.305264,0.0905 0.373788,0.0905 0.176906,0 0.272867,0.11841 0.272881,0.33672 5e-6,0.10364 0.04171,0.40635 0.09267,0.67269 0.113456,0.59291 0.120214,1.11693 0.01544,1.19658 -0.04248,0.0323 -0.216241,0.10927 -0.386146,0.17107 -0.6725,0.24461 -1.816098,0.8301 -2.243288,1.14849 l -0.450664,0.3359 0.0364,0.24713 c 0.02001,0.13592 0.109239,0.51976 0.198267,0.85296 0.225525,0.84406 0.175586,0.82267 1.841459,0.78882 0.713596,-0.0145 1.502186,-0.0284 1.752426,-0.0309 l 0.454978,-0.005 0.352551,0.80318 c 0.731326,1.66611 1.620583,3.31488 2.525819,4.68313 0.27545,0.41634 0.428406,0.59475 0.489713,0.57123 0.04903,-0.0188 0.156073,-0.051 0.237868,-0.0715 z m 1.181679,-0.4291 c 0.542656,-0.1784 2.147531,-0.58336 2.311885,-0.58336 0.205423,0 0.172411,-0.11023 -0.18927,-0.63198 -1.388197,-2.00256 -2.260616,-3.92175 -2.811786,-6.18553 -1.230515,-5.05397 -0.253243,-10.41013 2.673392,-14.65213 1.271825,-1.84345 3.117501,-3.65598 4.983735,-4.89423 4.804855,-3.18803 10.935298,-3.89825 16.370721,-1.89655 5.870026,2.16175 10.338802,7.36884 11.550855,13.45923 0.286793,1.4411 0.361471,2.37857 0.325155,4.08182 -0.04896,2.2962 -0.351991,3.91648 -1.120832,5.99296 -0.466169,1.25902 -1.521049,3.23577 -2.230668,4.18009 l -0.216239,0.28776 0.233372,0.034 c 0.879554,0.12796 1.602003,0.25327 2.042927,0.35434 0.281656,0.0646 0.560175,0.1174 0.618926,0.1174 0.156157,0 1.044278,-1.42508 1.713414,-2.74935 1.124556,-2.22558 1.799855,-4.42955 2.167529,-7.07417 0.137309,-0.98765 0.158149,-4.08395 0.0341,-5.06622 -0.41553,-3.29021 -1.341988,-6.04469 -2.919659,-8.68053 -1.149859,-1.92109 -2.295127,-3.32725 -4.010798,-4.92449 -4.707189,-4.38225 -11.342789,-6.4311 -17.767945,-5.48615 -7.598764,1.11756 -14.042482,6.1444 -16.953204,13.22546 -0.65007,1.58145 -1.133237,3.34779 -1.401721,5.12432 -0.192455,1.27346 -0.264211,3.71975 -0.147012,5.01184 0.339269,3.74028 1.583736,7.23738 3.663523,10.29493 0.306265,0.45024 0.5663,0.81863 0.577859,0.81863 0.01156,0 0.237343,-0.0711 0.501743,-0.15804 z m -1.939339,-2.72002 c -0.05726,-0.14922 0.13441,-0.28657 0.813705,-0.58309 0.339808,-0.14833 0.629091,-0.2779 0.642851,-0.28794 0.01376,-0.01 -0.04887,-0.19233 -0.139188,-0.40511 -0.09032,-0.21278 -0.164131,-0.43254 -0.164032,-0.48837 2.25e-4,-0.12858 0.157827,-0.19283 0.234512,-0.0956 0.12077,0.15311 0.516142,1.10377 0.488744,1.17517 -0.03282,0.0855 -1.578698,0.78277 -1.735497,0.78277 -0.05696,0 -0.12045,-0.044 -0.141095,-0.0978 z m 37.52881,-0.16149 c -0.0824,-0.11224 -0.230898,-0.33821 -0.330001,-0.50216 -0.147409,-0.24387 -0.250424,-0.33027 -0.566328,-0.47495 -0.386544,-0.17703 -0.418617,-0.21344 -0.348645,-0.39579 0.05079,-0.13235 0.148025,-0.12341 0.539116,0.0496 0.326428,0.14436 0.343796,0.14554 0.878924,0.0599 0.61743,-0.0989 0.723863,-0.081 0.695756,0.11695 -0.01729,0.12187 -0.0769,0.14874 -0.476323,0.21484 -0.251102,0.0416 -0.469059,0.0881 -0.484356,0.10336 -0.0153,0.0153 0.08992,0.20117 0.23381,0.41306 0.195005,0.28716 0.246422,0.40936 0.201917,0.47991 -0.102598,0.16265 -0.188916,0.14643 -0.34387,-0.0646 z m -38.044378,-1.60963 c -0.413605,-0.28108 -0.574409,-0.9333 -0.332308,-1.34783 0.06523,-0.1117 0.243354,-0.26986 0.395827,-0.35147 0.228119,-0.1221 0.345431,-0.14429 0.662296,-0.12526 0.322418,0.0194 0.415174,0.052 0.570066,0.20035 0.238242,0.22825 0.333389,0.52427 0.295445,0.91917 -0.02599,0.27051 -0.06366,0.34426 -0.264491,0.51786 -0.401393,0.34699 -0.973017,0.42762 -1.326835,0.18718 z m 0.937243,-0.39109 c 0.393413,-0.20345 0.473827,-0.60238 0.180541,-0.89567 -0.208744,-0.20874 -0.430806,-0.23161 -0.803009,-0.0827 -0.406683,0.16272 -0.560543,0.56376 -0.338122,0.8813 0.186143,0.26576 0.561086,0.30364 0.96059,0.0971 z m 37.690696,0.0854 c -0.129234,-0.12923 -0.08174,-0.22866 0.170742,-0.35747 0.134786,-0.0688 0.273801,-0.17871 0.308916,-0.24432 0.0942,-0.17601 0.07769,-0.45087 -0.0369,-0.61448 -0.18809,-0.26854 -0.785004,-0.40855 -1.076552,-0.25252 -0.165964,0.0888 -0.305496,0.38358 -0.305496,0.64535 0,0.18021 0.02916,0.23193 0.158482,0.2811 0.20928,0.0796 0.196787,0.0858 0.242172,-0.12083 0.05103,-0.23233 0.194514,-0.36056 0.293123,-0.26195 0.08748,0.0875 -0.101436,0.7419 -0.228215,0.79055 -0.117508,0.0451 -0.566468,-0.0865 -0.67902,-0.19911 -0.156966,-0.15696 -0.123316,-0.68607 0.06805,-1.0701 0.127991,-0.25685 0.218579,-0.35313 0.417038,-0.44326 0.323098,-0.14673 0.451633,-0.14601 0.854612,0.005 0.459993,0.17211 0.688401,0.51473 0.644705,0.96709 -0.01686,0.17458 -0.07527,0.40369 -0.129798,0.50913 -0.154068,0.29793 -0.558867,0.50906 -0.701862,0.36606 z m -39.51431,-1.87221 c -0.07025,-0.18306 0.03536,-0.27437 0.400406,-0.34619 0.201488,-0.0396 0.378015,-0.091 0.392278,-0.11404 0.01427,-0.0231 -0.224157,-0.19002 -0.529828,-0.37098 -0.449635,-0.26619 -0.552211,-0.3538 -0.537152,-0.45878 0.02828,-0.19714 0.201866,-0.19055 0.506791,0.0192 0.151517,0.10424 0.297624,0.18954 0.324684,0.18954 0.02706,0 0.249037,-0.19851 0.493285,-0.44113 0.303419,-0.30139 0.47512,-0.42921 0.542053,-0.40353 0.198642,0.0762 0.102795,0.31129 -0.288176,0.70675 l -0.386143,0.39059 0.154459,0.12009 c 0.120232,0.0935 0.236598,0.11684 0.525154,0.10535 0.336307,-0.0134 0.372437,-0.003 0.389413,0.1164 0.02321,0.16265 -0.0097,0.17618 -0.972565,0.4004 -0.88311,0.20564 -0.966147,0.21271 -1.014659,0.0863 z m 39.656227,-0.45585 c -0.496686,-0.12822 -0.726273,-0.38863 -0.756355,-0.85789 -0.04157,-0.64851 0.327276,-1.06491 0.943295,-1.06491 0.769023,0 1.184216,0.44424 1.077696,1.15309 -0.04423,0.29435 -0.183509,0.53356 -0.389102,0.66827 -0.1739,0.11394 -0.624739,0.16618 -0.875534,0.10144 z m 0.805988,-0.52987 c 0.111028,-0.11103 0.15165,-0.2186 0.15165,-0.40159 0,-0.30025 -0.136623,-0.45901 -0.484764,-0.56331 -0.66925,-0.20051 -1.191891,0.3424 -0.80415,0.83534 0.166697,0.21192 0.316975,0.27237 0.689335,0.27729 0.235366,0.003 0.327458,-0.0272 0.447929,-0.14773 z M 15.865861,266.2128 c -0.150537,-0.15373 -0.02258,-0.32313 0.602386,-0.79755 0.356799,-0.27084 0.648722,-0.50231 0.648722,-0.51437 0,-0.0121 -0.298875,-0.0128 -0.664168,-0.002 -0.649145,0.0199 -0.664615,0.0172 -0.683947,-0.119 -0.01088,-0.0766 0.01693,-0.15141 0.06178,-0.16623 0.211561,-0.0699 1.75797,-0.14107 1.861576,-0.0857 0.219109,0.11709 0.0904,0.31498 -0.495038,0.76114 -0.312686,0.2383 -0.598377,0.46318 -0.634873,0.49974 -0.04735,0.0474 0.128749,0.0584 0.614856,0.0384 0.664869,-0.0274 0.68121,-0.0249 0.68121,0.10497 0,0.0813 -0.05433,0.15368 -0.139761,0.18617 -0.189247,0.0719 -1.794591,0.15348 -1.852745,0.0941 z M 55.4656,265.79993 c -0.04598,-0.12246 0.02942,-1.11558 0.09426,-1.24158 0.05427,-0.10546 0.117114,-0.11066 0.835589,-0.0692 0.982044,0.0566 1.096804,0.086 1.096804,0.28037 0,0.14091 -0.02064,0.14988 -0.339805,0.14783 -0.186895,-10e-4 -0.562227,-0.0148 -0.834076,-0.0302 l -0.494262,-0.028 -0.03383,0.43286 c -0.01862,0.23807 -0.055,0.46712 -0.08087,0.50899 -0.06097,0.0987 -0.206603,0.098 -0.24381,-10e-4 z m -38.415709,-1.79659 c -0.155824,-0.0738 -0.524207,-0.24175 -0.818625,-0.37328 -0.485285,-0.21679 -0.535307,-0.25505 -0.535307,-0.40947 0,-0.18967 0.06727,-0.26027 0.339805,-0.35663 0.101944,-0.036 0.496996,-0.17824 0.877895,-0.31599 0.615233,-0.22249 0.702875,-0.24011 0.785108,-0.15788 0.135887,0.13589 0.05548,0.26356 -0.217492,0.34534 l -0.240738,0.0721 v 0.44689 c 0,0.42174 0.0085,0.44902 0.150138,0.48458 0.343322,0.0862 0.429074,0.41297 0.10583,0.40332 -0.08981,-0.003 -0.290787,-0.0652 -0.446614,-0.13901 z m -0.118271,-0.77726 v -0.30332 l -0.401408,0.1305 c -0.220775,0.0718 -0.380639,0.15073 -0.355254,0.17544 0.04895,0.0476 0.631827,0.29162 0.710326,0.29733 0.02549,0.002 0.04634,-0.13313 0.04634,-0.29995 z m 39.003607,0.67651 c -0.255896,-0.15602 -0.402658,-0.44614 -0.4081,-0.80671 -0.006,-0.40113 0.105104,-0.62671 0.404452,-0.82081 0.208414,-0.13514 0.329005,-0.16669 0.637155,-0.16669 0.449814,0 0.738058,0.1573 0.907976,0.4955 0.223308,0.44447 0.08223,1.0122 -0.317954,1.27954 -0.281483,0.18804 -0.929918,0.1982 -1.223529,0.0192 z m 0.962742,-0.31811 c 0.423944,-0.14779 0.492195,-0.7494 0.112112,-0.98822 -0.390677,-0.24547 -1.058995,-0.0497 -1.163435,0.34083 -0.132263,0.49455 0.45406,0.8556 1.051323,0.64739 z m -41.179972,-1.50777 c -0.0523,-0.1363 0.04976,-0.22978 0.470313,-0.43078 0.206227,-0.0986 0.367481,-0.19858 0.358341,-0.22225 -0.0091,-0.0237 -0.177994,-0.17397 -0.375224,-0.33401 -0.352464,-0.286 -0.43345,-0.47163 -0.223407,-0.51208 0.0529,-0.0102 0.313428,0.14936 0.578946,0.35455 0.436119,0.33702 0.511329,0.37306 0.778461,0.37306 0.388182,0 0.491158,0.0453 0.491158,0.21624 0,0.18293 -0.09938,0.21619 -0.517151,0.17308 -0.314513,-0.0325 -0.381865,-0.0147 -0.833246,0.22016 -0.529963,0.27572 -0.6724,0.30741 -0.728191,0.16203 z m 39.73324,-0.40432 c -0.09264,-0.1499 0.06198,-0.36346 0.601047,-0.83015 0.617367,-0.53449 0.618463,-0.57984 0.01132,-0.4676 -0.50844,0.094 -0.761469,0.084 -0.805926,-0.0319 -0.0676,-0.17616 0.124096,-0.25439 0.87535,-0.35723 0.968638,-0.13261 1.061386,-0.13025 1.146674,0.0291 0.0625,0.11679 0.02875,0.16759 -0.322189,0.48494 -0.215601,0.19496 -0.503212,0.45827 -0.639136,0.58513 l -0.247134,0.23064 0.308916,-0.0383 c 0.985953,-0.12232 1.081207,-0.12129 1.081207,0.0117 0,0.0687 -0.03475,0.15204 -0.07723,0.18516 -0.07058,0.055 -1.46777,0.26382 -1.765631,0.26382 -0.0698,0 -0.14507,-0.0294 -0.167261,-0.0653 z m -38.597079,-1.49588 c -0.433386,-0.27971 -0.803307,-0.55616 -0.822051,-0.61435 -0.08393,-0.26053 0.05919,-0.33689 0.9464,-0.5049 0.981888,-0.18594 1.162175,-0.19647 1.210433,-0.0707 0.04584,0.11947 -0.11875,0.27956 -0.288649,0.28075 -0.220228,0.002 -0.273653,0.073 -0.345528,0.46189 l -0.06841,0.37015 0.227482,0.19098 c 0.157583,0.13231 0.215332,0.22265 0.187946,0.29402 -0.06903,0.17989 -0.240353,0.11319 -1.047626,-0.40783 z m 0.386379,-0.31549 c 0,-0.0467 0.01787,-0.17433 0.03972,-0.28357 l 0.03973,-0.19862 -0.364088,0.0435 c -0.200248,0.0239 -0.387008,0.0646 -0.415021,0.0905 -0.02802,0.0259 0.09709,0.13328 0.278023,0.23873 0.371539,0.21656 0.421637,0.22958 0.421637,0.10952 z m 37.950294,-0.26642 c -0.04248,-0.0163 -0.07723,-0.0957 -0.07723,-0.17655 0,-0.14947 0.02869,-0.16348 0.633277,-0.30942 0.193211,-0.0466 0.196021,-0.0623 0.09832,-0.5488 l -0.07158,-0.35644 -0.252779,0.0474 c -0.139024,0.0261 -0.350084,0.0498 -0.469017,0.0527 -0.190262,0.005 -0.216242,-0.0131 -0.216242,-0.14756 0,-0.14514 0.04191,-0.16287 0.834072,-0.35292 0.950381,-0.228 1.084866,-0.24129 1.13444,-0.1121 0.06751,0.17592 -0.03423,0.27182 -0.36752,0.34641 -0.18394,0.0412 -0.334437,0.1035 -0.334437,0.13852 0,0.035 0.03336,0.22522 0.07414,0.42265 0.08114,0.39282 0.12463,0.41737 0.53219,0.30049 0.223364,-0.0641 0.356345,-0.0362 0.402596,0.0843 0.06285,0.16379 -0.0904,0.23996 -0.831277,0.41314 -0.991082,0.23167 -0.998266,0.23298 -1.088953,0.19819 z m -37.82361,-1.2575 c -0.923798,-0.26988 -1.041525,-0.3381 -0.905168,-0.52458 0.08506,-0.11633 0.09937,-0.1168 0.477198,-0.0156 0.21423,0.0574 0.396691,0.0972 0.405469,0.0884 0.0088,-0.009 -0.121643,-0.25073 -0.289822,-0.53768 -0.321902,-0.54923 -0.368805,-0.71874 -0.215166,-0.7777 0.128772,-0.0494 0.250896,0.0661 0.413059,0.39084 0.07575,0.15167 0.155794,0.28693 0.17788,0.30058 0.02209,0.0136 0.294849,-0.0606 0.606141,-0.165 0.608705,-0.20415 0.768707,-0.19921 0.737188,0.0227 -0.01649,0.11612 -0.112254,0.16938 -0.575827,0.32027 -0.305827,0.0996 -0.566171,0.18844 -0.578542,0.19755 -0.01238,0.009 0.03797,0.11439 0.111863,0.23395 0.09678,0.1566 0.193168,0.22842 0.344655,0.25685 0.261941,0.0491 0.386678,0.18309 0.299378,0.32149 -0.03444,0.0546 -0.08843,0.10631 -0.119985,0.11493 -0.03155,0.009 -0.431298,-0.0936 -0.888321,-0.2271 z M 54.7429,257.30469 c -0.456641,-0.22812 -0.621089,-0.93618 -0.316709,-1.36363 0.273061,-0.38349 1.012348,-0.56612 1.425908,-0.35226 0.191812,0.0992 0.395866,0.39545 0.460093,0.66798 0.05493,0.23309 -0.0638,0.64537 -0.208099,0.72259 -0.282289,0.15108 -0.41691,-0.0205 -0.220168,-0.28061 0.04989,-0.066 0.09159,-0.22217 0.09267,-0.34713 0.0037,-0.43175 -0.440053,-0.60272 -0.955674,-0.36817 -0.32236,0.14663 -0.426303,0.2801 -0.426303,0.54737 0,0.26891 0.248624,0.51138 0.524361,0.51138 0.227046,0 0.312386,0.16624 0.147304,0.28695 -0.151439,0.11074 -0.263188,0.10551 -0.523387,-0.0245 z M 18.615209,255.8664 c -0.277625,-0.11159 -0.118408,-0.37771 0.195505,-0.32677 0.230298,0.0374 0.365168,-0.0841 0.334395,-0.30118 -0.016,-0.11278 -0.161596,-0.21312 -0.699804,-0.48222 -0.525155,-0.26258 -0.679613,-0.36789 -0.679613,-0.46337 0,-0.21722 0.275802,-0.16784 0.957638,0.17145 0.722366,0.35946 0.84684,0.5032 0.773636,0.89341 -0.08234,0.43892 -0.481885,0.66941 -0.881757,0.50868 z m 35.177773,-0.446 c -0.300864,-0.51992 -0.489096,-0.96062 -0.45181,-1.05779 0.05275,-0.13746 1.543198,-0.8721 1.67034,-0.82331 0.05539,0.0213 0.23295,0.30485 0.394574,0.63022 0.238071,0.47926 0.27739,0.60176 0.207089,0.64521 -0.146265,0.0904 -0.222868,0.0151 -0.439,-0.43169 -0.114408,-0.23649 -0.231826,-0.42999 -0.260929,-0.42999 -0.05992,0 -0.41748,0.17811 -0.41748,0.20796 0,0.0107 0.08291,0.16983 0.184232,0.35366 0.212925,0.38629 0.241034,0.61226 0.07616,0.61226 -0.07426,0 -0.175019,-0.13123 -0.30834,-0.40159 -0.108919,-0.22088 -0.233044,-0.40043 -0.27584,-0.399 -0.04279,0.001 -0.165192,0.0501 -0.271999,0.10812 l -0.194199,0.10553 0.238678,0.49017 c 0.179141,0.36791 0.22184,0.51046 0.171184,0.5715 -0.106991,0.12892 -0.160599,0.0988 -0.322663,-0.18126 z m -34.719883,-1.53563 c -0.600374,-0.75225 -0.690627,-0.9509 -0.502836,-1.10676 0.07626,-0.0633 0.270981,-0.0538 1.028811,0.0504 0.957012,0.13149 1.142857,0.20313 1.063498,0.40993 -0.03525,0.0919 -0.09005,0.10427 -0.326631,0.0739 l -0.284274,-0.0365 -0.206617,0.35339 c -0.125492,0.21463 -0.186139,0.38058 -0.154459,0.42264 0.261057,0.34661 0.282324,0.39696 0.206361,0.48849 -0.04216,0.0508 -0.110471,0.0924 -0.151803,0.0924 -0.04133,0 -0.343752,-0.33655 -0.67205,-0.74789 z m 0.510156,-0.38694 c 0.07073,-0.11445 0.128604,-0.22204 0.128604,-0.2391 0,-0.0451 -0.747452,-0.18518 -0.785391,-0.14725 -0.03509,0.0351 0.420259,0.58914 0.486883,0.59241 0.02272,0.001 0.09917,-0.0916 0.169904,-0.20606 z m 33.096491,-0.13397 c -0.0517,-0.0517 -0.07888,-0.13342 -0.06039,-0.18159 0.01848,-0.0482 0.323132,-0.27216 0.67699,-0.49774 0.353859,-0.22558 0.64338,-0.42535 0.64338,-0.44393 0,-0.0186 -0.05831,-0.12813 -0.129578,-0.24344 -0.137823,-0.22301 -0.121973,-0.39187 0.03679,-0.39187 0.102328,0 0.895964,1.16917 0.895964,1.31993 0,0.25517 -0.372823,0.0775 -0.468248,-0.22319 -0.04634,-0.14602 -0.0988,-0.12602 -0.659102,0.25138 -0.695821,0.46868 -0.822162,0.5241 -0.935804,0.41045 z M 20.15427,252.24597 c -0.58213,-0.41313 -0.751325,-0.56469 -0.751325,-0.67301 0,-0.3189 0.203454,-0.22993 1.247848,0.54568 0.227576,0.16901 0.429623,0.34859 0.448993,0.39907 0.03468,0.0904 -0.06341,0.26146 -0.149902,0.26146 -0.02436,0 -0.382386,-0.23994 -0.795614,-0.5332 z m 0.981442,-1.35422 c -0.37535,-0.32448 -0.682455,-0.62885 -0.682455,-0.67637 0,-0.0475 0.174286,-0.26858 0.387299,-0.49124 0.325338,-0.34006 0.420227,-0.40483 0.593119,-0.40483 0.273868,0 0.625944,0.33883 0.625944,0.60239 0,0.17009 -0.271542,0.62648 -0.431598,0.7254 -0.04381,0.0271 0.03563,0.15461 0.217334,0.34886 0.234115,0.25029 0.27279,0.32257 0.211871,0.39597 -0.04099,0.0494 -0.111541,0.0898 -0.156791,0.0898 -0.04525,0 -0.389375,-0.26548 -0.764723,-0.58997 z m 0.414197,-0.6036 c 0.165821,-0.24357 0.172742,-0.3349 0.03676,-0.48515 -0.150419,-0.16621 -0.280534,-0.13932 -0.518909,0.10724 l -0.212914,0.22022 0.216242,0.17971 c 0.118932,0.0988 0.244042,0.18026 0.278023,0.18094 0.03398,5.7e-4 0.124338,-0.0906 0.200796,-0.20296 z m 30.462012,0.69457 -0.265502,-0.30753 -0.329677,0.24814 c -0.268426,0.20204 -0.351642,0.23638 -0.447927,0.18485 -0.138476,-0.0741 -0.146165,-0.12268 -0.04102,-0.25907 0.15528,-0.20142 1.313033,-1.09731 1.418049,-1.09731 0.131726,0 0.858975,0.85897 0.836335,0.98782 -0.03555,0.20228 -0.219081,0.12022 -0.476045,-0.21285 -0.145328,-0.18837 -0.29771,-0.34249 -0.338627,-0.34249 -0.04091,0 -0.139069,0.0688 -0.218127,0.153 l -0.143733,0.153 0.225641,0.28962 c 0.244306,0.31358 0.275374,0.42239 0.135893,0.47591 -0.05645,0.0217 -0.188252,-0.0796 -0.355255,-0.27309 z m -2.014837,-0.92079 c -0.4807,-0.34822 -0.576397,-0.81852 -0.266112,-1.30779 0.488923,-0.77095 1.419138,-0.74509 1.804109,0.0502 0.151522,0.313 0.132442,0.53263 -0.0755,0.8691 -0.353864,0.57256 -0.97914,0.73868 -1.462493,0.38854 z m 0.978402,-0.42767 c 0.287571,-0.3023 0.341789,-0.50216 0.211005,-0.77777 -0.20899,-0.44041 -0.779968,-0.40421 -1.102115,0.0699 -0.322612,0.47477 -0.121604,0.949 0.402247,0.949 0.221303,0 0.293267,-0.0355 0.488863,-0.2411 z m -28.457778,-0.22534 c -0.353326,-0.3721 -0.642641,-0.72221 -0.642924,-0.77801 -6.82e-4,-0.12085 0.694331,-0.77975 0.908141,-0.86104 0.226667,-0.0862 0.300582,-0.0712 0.507616,0.10303 0.201699,0.16972 0.249751,0.41631 0.126133,0.64729 -0.05642,0.10543 -0.04277,0.11951 0.115798,0.11951 0.224091,0 0.700038,0.16412 0.76073,0.26232 0.05966,0.0965 -0.05668,0.23194 -0.19929,0.23194 -0.06214,0 -0.273098,-0.0417 -0.46879,-0.0927 -0.451704,-0.11765 -0.472003,-0.11682 -0.647358,0.0267 l -0.145856,0.11937 0.262579,0.26911 c 0.281535,0.28854 0.320258,0.41767 0.164104,0.54727 -0.08582,0.0712 -0.181027,-0.005 -0.740883,-0.59482 z m 0.430578,-0.70762 c 0.257343,-0.28484 0.266445,-0.3275 0.10445,-0.4895 -0.153289,-0.15328 -0.307852,-0.11093 -0.565593,0.15499 l -0.204067,0.21054 0.177856,0.18564 c 0.09782,0.1021 0.197219,0.18564 0.220889,0.18564 0.02367,0 0.143577,-0.11129 0.266465,-0.24731 z m 1.466702,-0.0728 c -0.02991,-0.0788 -0.161065,-0.51296 -0.291462,-0.96477 -0.252222,-0.8739 -0.248294,-1.01077 0.0302,-1.05211 0.125126,-0.0186 1.422587,0.67575 1.690113,0.90445 0.267013,0.22826 0.03869,0.39144 -0.320853,0.22931 l -0.236981,-0.10686 -0.314077,0.23799 c -0.269331,0.20409 -0.308524,0.26 -0.275097,0.39245 0.08229,0.32606 0.0573,0.46239 -0.08855,0.4831 -0.0988,0.014 -0.154615,-0.0217 -0.193286,-0.12356 z m 0.469729,-1.06105 0.13753,-0.12043 -0.341729,-0.21375 c -0.187953,-0.11757 -0.353907,-0.20158 -0.368789,-0.1867 -0.01487,0.0149 0.03124,0.1997 0.102504,0.41071 0.140266,0.41536 0.125828,0.41198 0.470484,0.11017 z m 22.892133,0.57165 c -0.280341,-0.20371 -0.509709,-0.40587 -0.509709,-0.44923 0,-0.14791 0.991141,-1.52154 1.09786,-1.52154 0.173344,0 1.126333,0.68905 1.126333,0.81438 0,0.18011 -0.197329,0.13363 -0.572136,-0.13476 -0.189813,-0.13592 -0.373163,-0.24713 -0.407441,-0.24713 -0.03428,0 -0.119923,0.0809 -0.190327,0.17976 l -0.127999,0.17976 0.405136,0.2891 c 0.222825,0.15901 0.394389,0.32138 0.381256,0.36084 -0.04856,0.14585 -0.224611,0.10248 -0.5721,-0.14094 -0.380594,-0.2666 -0.417091,-0.26402 -0.596814,0.0422 l -0.10495,0.17883 0.41387,0.30494 c 0.227625,0.16773 0.413864,0.34657 0.413864,0.39743 0,0.19276 -0.264539,0.10411 -0.756843,-0.25363 z m -21.811968,-1.18303 c -0.167355,-0.28034 -0.384691,-0.65727 -0.482966,-0.83763 -0.171439,-0.31462 -0.174057,-0.33135 -0.06456,-0.41279 0.15783,-0.11738 0.244867,-0.0678 0.410664,0.23386 0.264715,0.48166 0.26234,0.48282 0.43441,-0.21135 0.149722,-0.60401 0.168539,-0.64216 0.325802,-0.66058 0.200901,-0.0235 0.211955,0.0616 0.07003,0.53959 -0.05328,0.17942 -0.08804,0.33414 -0.07723,0.34383 0.01081,0.01 0.255968,0.13557 0.544804,0.27973 0.546734,0.27288 0.626434,0.33756 0.576448,0.46783 -0.06259,0.16312 -0.227155,0.14 -0.701606,-0.0985 -0.269461,-0.13548 -0.502293,-0.24633 -0.517401,-0.24633 -0.01511,0 -0.05945,0.0969 -0.09853,0.2153 -0.06189,0.18754 -0.05344,0.24664 0.06554,0.45834 0.15046,0.2677 0.127186,0.43846 -0.05976,0.43846 -0.08623,0 -0.209446,-0.14755 -0.425645,-0.50971 z m 20.23135,0.1596 c -0.09265,-0.0926 -0.02339,-0.27984 0.329513,-0.89067 0.203881,-0.3529 0.370484,-0.65598 0.37022,-0.67351 -2.24e-4,-0.0175 -0.111471,-0.0953 -0.247131,-0.17274 -0.252794,-0.14436 -0.318542,-0.2988 -0.15408,-0.36192 0.0965,-0.037 1.253456,0.58512 1.386735,0.74572 0.08909,0.10735 0.03729,0.22043 -0.100994,0.22043 -0.05345,0 -0.189305,-0.0569 -0.301903,-0.12652 l -0.204724,-0.12653 -0.08852,0.14197 c -0.04869,0.0781 -0.206995,0.35049 -0.351801,0.60535 -0.365993,0.64414 -0.498679,0.77706 -0.637317,0.63842 z m -18.252154,-0.65122 c -0.03644,-0.0439 -0.08639,-0.50332 -0.111014,-1.02085 -0.04817,-1.01266 -0.02249,-1.12876 0.249687,-1.12876 0.205212,0 1.52699,1.2712 1.502109,1.44463 -0.02782,0.19394 -0.223883,0.19533 -0.424621,0.003 l -0.177571,-0.17013 -0.369599,0.1468 -0.369599,0.14681 -0.01821,0.31051 c -0.01889,0.32204 -0.140338,0.43778 -0.281177,0.26797 z m 0.581424,-1.00663 c 0.246415,-0.10296 0.252741,-0.0804 -0.145657,-0.51902 -0.108844,-0.11983 -0.209217,-0.20499 -0.223052,-0.18923 -0.0491,0.0559 0.03513,0.80093 0.09055,0.80093 0.03099,0 0.156161,-0.0417 0.278159,-0.0927 z m 15.910907,0.76374 c -0.532182,-0.26343 -0.58284,-0.58211 -0.223461,-1.40578 0.264321,-0.60579 0.389561,-0.77096 0.540652,-0.71298 0.149569,0.0574 0.132901,0.15043 -0.143134,0.79898 -0.135922,0.31935 -0.247134,0.64725 -0.247134,0.72867 0,0.18226 0.164766,0.33915 0.407063,0.38761 0.246126,0.0492 0.364018,-0.0893 0.678657,-0.79721 0.217375,-0.48909 0.27207,-0.56621 0.40159,-0.56621 0.103733,0 0.155496,0.0388 0.167952,0.12578 0.02739,0.19131 -0.504782,1.28697 -0.699489,1.44013 -0.217562,0.17113 -0.538261,0.1715 -0.882696,8.5e-4 z m -14.305283,-0.73704 c -0.229625,-0.0656 -0.410397,-0.23212 -0.410397,-0.37801 0,-0.18708 0.168928,-0.19864 0.374526,-0.0256 0.218468,0.18383 0.219687,0.18406 0.482522,0.0924 0.24436,-0.0852 0.346309,-0.25546 0.255048,-0.42599 -0.05667,-0.10589 -0.129899,-0.12369 -0.511884,-0.12448 -0.520162,-0.001 -0.717007,-0.0825 -0.821835,-0.33993 -0.11058,-0.27158 0.01966,-0.5434 0.338259,-0.70593 0.437857,-0.22338 0.99546,-0.11849 0.99546,0.18726 0,0.16726 -0.150916,0.21103 -0.319798,0.0927 -0.238882,-0.16732 -0.606851,-0.10143 -0.69342,0.12417 -0.07542,0.19654 0.07827,0.27191 0.554502,0.27191 0.532032,0 0.732758,0.0756 0.831045,0.31285 0.218123,0.5266 -0.449019,1.0972 -1.074028,0.91861 z m 12.481684,0.0248 c -0.08112,-0.0811 -0.03791,-0.31496 0.175053,-0.94734 0.118933,-0.35316 0.21624,-0.66181 0.21624,-0.68589 0,-0.0241 -0.118158,-0.0812 -0.262576,-0.12687 -0.193696,-0.0613 -0.26258,-0.11551 -0.26258,-0.20666 0,-0.18869 0.178501,-0.17271 0.895855,0.0802 0.531296,0.18731 0.648722,0.25108 0.648722,0.35228 0,0.13185 -0.08399,0.14375 -0.440725,0.0625 l -0.193594,-0.0441 -0.231713,0.70134 c -0.127443,0.38574 -0.2592,0.7361 -0.292791,0.77857 -0.06652,0.0841 -0.186634,0.1013 -0.251891,0.036 z m -10.854884,-0.5303 c -0.03343,-0.0765 -0.140134,-0.49353 -0.237123,-0.92682 -0.147661,-0.65969 -0.163269,-0.80538 -0.09597,-0.89585 0.123133,-0.16554 0.284874,-0.0272 0.373247,0.3192 0.04121,0.16154 0.08895,0.30774 0.106091,0.32488 0.03721,0.0372 0.730524,-0.10513 0.79903,-0.16405 0.02627,-0.0226 0.01434,-0.18597 -0.02655,-0.36305 -0.06521,-0.28252 -0.0616,-0.3347 0.02946,-0.42576 0.0939,-0.0939 0.112931,-0.0946 0.199888,-0.008 0.104625,0.10462 0.475889,1.61144 0.446893,1.81378 -0.01233,0.0861 -0.06454,0.12454 -0.169171,0.12454 -0.134442,0 -0.162041,-0.0435 -0.247382,-0.38989 -0.05283,-0.21443 -0.123747,-0.38984 -0.157592,-0.38978 -0.03384,6e-5 -0.231012,0.0338 -0.438154,0.075 l -0.37662,0.0749 0.08392,0.40034 c 0.06287,0.29994 0.06633,0.42153 0.0138,0.48483 -0.104431,0.12583 -0.235167,0.10236 -0.303766,-0.0545 z m 9.539473,0.0486 c -0.02089,-0.0545 0.05143,-0.43705 0.160738,-0.85017 0.269766,-1.01955 0.282686,-1.04903 0.449414,-1.02535 0.120188,0.0171 0.137196,0.053 0.126174,0.26687 -0.007,0.13592 -0.104315,0.56685 -0.216242,0.95763 -0.176595,0.61658 -0.221917,0.71313 -0.342789,0.73029 -0.08454,0.012 -0.154229,-0.0192 -0.177295,-0.0793 z m -1.288292,-0.27564 c -0.02075,-0.0654 0.02279,-0.44372 0.0968,-0.84075 0.144094,-0.77318 0.133112,-0.82892 -0.163704,-0.83113 -0.171244,-10e-4 -0.365627,-0.15043 -0.311071,-0.2387 0.05997,-0.097 0.394346,-0.0838 1.056105,0.0417 0.498554,0.0946 0.558174,0.12038 0.576585,0.24949 0.01961,0.13752 0.0057,0.14304 -0.307926,0.12251 l -0.328469,-0.0215 -0.129526,0.71588 c -0.07124,0.39374 -0.14727,0.76212 -0.168953,0.81863 -0.05402,0.1408 -0.273546,0.12971 -0.319839,-0.0162 z M 34.62677,244.5527 c -0.02416,-0.0391 -0.07114,-0.47232 -0.104428,-0.96278 -0.05387,-0.7937 -0.04944,-0.90281 0.04026,-0.99251 0.201945,-0.20195 0.281916,0.011 0.351663,0.93618 0.03525,0.46759 0.04695,0.90415 0.026,0.97015 -0.04159,0.13103 -0.243309,0.16253 -0.3135,0.049 z m 3.537648,0.0109 c -0.292595,-0.0564 -0.5355,-0.28926 -0.553087,-0.5303 -0.01064,-0.14594 0.01391,-0.18557 0.124772,-0.20137 0.106111,-0.0151 0.16203,0.0307 0.241851,0.19806 0.154329,0.32362 0.611188,0.38339 0.762957,0.0998 0.100696,-0.18815 0.0097,-0.29542 -0.377651,-0.4453 -0.68391,-0.26461 -0.858989,-0.61367 -0.491911,-0.98075 0.14811,-0.14811 0.232566,-0.1806 0.469482,-0.1806 0.354835,0 0.669289,0.1414 0.760714,0.34206 0.150367,0.33001 -0.159285,0.48154 -0.325845,0.15945 -0.106424,-0.20581 -0.326175,-0.28141 -0.559786,-0.19259 -0.120361,0.0458 -0.157866,0.0982 -0.143302,0.20041 0.0151,0.10581 0.111846,0.17518 0.410646,0.29438 0.527342,0.21037 0.690291,0.3634 0.690291,0.64828 0,0.2569 -0.272382,0.58685 -0.484457,0.58685 -0.0678,0 -0.160296,0.0106 -0.20555,0.0236 -0.04526,0.013 -0.188863,0.003 -0.319124,-0.022 z m -2.654061,-0.10198 c -0.02407,-0.0241 -0.0438,-0.47097 -0.0438,-0.99308 0,-0.82186 0.01357,-0.95448 0.101076,-0.98806 0.164374,-0.0631 0.277423,0.0476 0.733002,0.71769 l 0.432477,0.63613 0.01743,-0.68062 c 0.01465,-0.57212 0.03408,-0.687 0.121936,-0.72072 0.217208,-0.0833 0.266368,0.12854 0.248372,1.07059 -0.01448,0.75753 -0.03265,0.90054 -0.121522,0.95653 -0.144196,0.0908 -0.27423,-0.0379 -0.760042,-0.75237 l -0.397645,-0.5848 -0.01763,0.6732 c -0.01635,0.62386 -0.02688,0.67452 -0.143739,0.69125 -0.06936,0.01 -0.145817,-0.002 -0.169904,-0.0257 z m 1.88304,46.20534 c -0.107682,-0.46685 -0.530672,-2.30845 -0.93998,-4.09243 -1.94361,-8.47131 -2.490947,-10.85406 -2.699737,-11.75288 -0.124146,-0.53445 -0.207143,-0.9903 -0.184441,-1.013 0.04335,-0.0434 7.440492,0.12421 7.485854,0.16957 0.01442,0.0144 -0.165935,0.99866 -0.400762,2.18722 -0.234823,1.18857 -1.011524,5.1196 -1.725999,8.73563 -0.714473,3.61603 -1.308068,6.58362 -1.319099,6.59465 -0.01101,0.011 -0.108155,-0.36191 -0.215836,-0.82876 z m -5.131669,-19.36793 c -0.81722,-1.69625 -2.286792,-4.72663 -3.121015,-6.43581 -0.462922,-0.94844 -0.828224,-1.73789 -0.811783,-1.75433 0.03696,-0.037 17.159117,0.10361 17.196685,0.14118 0.03088,0.0309 -0.107287,0.34782 -1.65709,3.80096 -0.61766,1.37622 -1.271063,2.83585 -1.452008,3.24362 -0.180943,0.40777 -0.44154,0.99162 -0.579102,1.29744 l -0.250115,0.55606 -4.450603,0.0159 -4.450607,0.0159 z m -10.078541,-2.69604 v -1.22828 l 0.648721,-0.0442 0.648725,-0.0442 v -0.45743 -0.45743 h 0.61783 c 0.339808,0 0.622137,0.007 0.627398,0.0154 0.0053,0.009 0.02611,0.43249 0.04634,0.94219 l 0.03677,0.92675 0.447928,0.0181 0.447928,0.0181 v -0.65915 -0.65916 l 0.193071,0.0386 c 0.10619,0.0212 0.328609,0.0386 0.494264,0.0386 h 0.301195 v 1.39012 1.39012 h -2.255085 -2.255084 z m 25.731878,-0.4553 c 0.01785,-0.0765 0.394421,-2.08519 0.836835,-4.46383 0.44242,-2.37866 0.819787,-4.40128 0.838603,-4.49473 0.03019,-0.14992 0.06212,-0.1699 0.271531,-0.1699 0.20914,0 0.241502,0.0202 0.27262,0.1699 0.03146,0.15142 0.336354,1.92875 1.242669,7.24407 0.153543,0.90049 0.289848,1.68591 0.302902,1.74538 0.02223,0.10115 -0.0994,0.10812 -1.886937,0.10812 h -1.91067 z m 1.514487,-0.4012 c 0,-0.11046 -0.523771,-1.80755 -0.557859,-1.80755 -0.02083,0 -0.09767,0.32668 -0.170784,0.72595 -0.07311,0.39928 -0.15107,0.81631 -0.173242,0.92675 l -0.04031,0.20079 h 0.471097 c 0.259101,0 0.471097,-0.0207 0.471097,-0.0459 z m 1.668142,0.0177 c 0,-0.0761 -0.322073,-1.85871 -0.338868,-1.87562 -0.02333,-0.0235 -0.587879,1.74012 -0.587879,1.83647 0,0.0427 0.169768,0.0674 0.463374,0.0674 0.254854,0 0.463373,-0.0127 0.463373,-0.0283 z m -0.929667,-1.74798 c 0.180656,-0.56918 0.341596,-1.06962 0.357653,-1.1121 0.02225,-0.0589 -0.132952,-0.0772 -0.653391,-0.0772 -0.37542,0 -0.698733,0.0261 -0.718478,0.0581 -0.04089,0.0662 0.585551,2.16611 0.646184,2.16611 0.02177,0 0.187375,-0.4657 0.368032,-1.03487 z m 0.08697,-1.2904 c 0.208565,-0.0286 0.286649,-0.0669 0.286649,-0.14065 0,-0.12525 -0.649681,-1.06897 -0.720786,-1.04701 -0.06559,0.0202 -0.661503,0.84965 -0.719096,1.00084 -0.02384,0.0625 -0.02768,0.13899 -0.0086,0.1699 0.03996,0.0647 0.739174,0.0748 1.161809,0.0169 z m -0.632934,-1.17858 0.123577,-0.19844 -0.138771,-0.1877 c -0.07633,-0.10324 -0.156541,-0.1877 -0.178258,-0.1877 -0.02171,0 -0.07272,0.1804 -0.113353,0.40088 -0.04062,0.22049 -0.0905,0.49156 -0.110834,0.60239 l -0.03697,0.2015 0.165516,-0.21624 c 0.09104,-0.11893 0.22113,-0.30554 0.289095,-0.41469 z m 0.75315,-0.0359 c -0.05485,-0.32984 -0.116293,-0.59936 -0.136548,-0.59894 -0.0539,10e-4 -0.325414,0.43364 -0.30301,0.48269 0.05152,0.11279 0.503643,0.75158 0.520217,0.73501 0.01047,-0.0105 -0.02583,-0.28893 -0.08066,-0.61876 z m -0.266356,-0.67836 c 1.51e-4,-0.0263 -0.06934,-0.002 -0.154462,0.0537 -0.125942,0.0825 -0.172246,0.0869 -0.248624,0.0235 -0.153251,-0.12718 -0.164863,-0.0307 -0.01868,0.15517 l 0.135714,0.17253 0.142868,-0.17855 c 0.07858,-0.0982 0.143009,-0.20003 0.143176,-0.2263 z m 0.06209,-0.36424 c 0,-0.19024 -0.255541,-1.6775 -0.303534,-1.76658 -0.03754,-0.0697 -0.376079,1.60022 -0.376079,1.85509 0,0.0568 0.07603,0.14314 0.168959,0.19184 0.152541,0.0799 0.185567,0.0767 0.339808,-0.0331 0.09397,-0.0669 0.170846,-0.17816 0.170846,-0.24722 z m -11.450904,-0.42501 c -0.586826,-0.0985 -1.76958,-0.52426 -1.858476,-0.66901 -0.01303,-0.0212 0.161267,-0.0466 0.387307,-0.0565 1.352695,-0.0591 2.485046,-0.56678 3.46472,-1.5534 0.629718,-0.63419 1.055254,-1.32035 1.343628,-2.16652 0.467087,-1.37057 0.460112,-2.88423 -0.01993,-4.32396 -0.435545,-1.30631 -1.490158,-2.71505 -2.543516,-3.3976 -0.176058,-0.11409 -0.310719,-0.21681 -0.299246,-0.22828 0.01147,-0.0115 0.254713,0.02 0.540536,0.07 1.959463,0.3424 3.604643,1.64156 4.541055,3.58594 0.993128,2.06215 0.924297,4.37403 -0.185479,6.2298 -0.537447,0.89872 -1.574245,1.79739 -2.51772,2.1823 -0.818881,0.33408 -2.002994,0.46992 -2.852883,0.32727 z m 8.193589,-0.59944 c -0.469275,-0.43996 -0.736463,-1.14136 -0.67707,-1.77739 0.05833,-0.62459 0.415281,-1.3605 0.785787,-1.62001 0.123705,-0.0867 0.145592,-0.0816 0.294945,0.0677 l 0.161327,0.16133 -0.187287,0.20177 c -0.262962,0.28329 -0.369008,0.47053 -0.482009,0.85105 -0.187653,0.63189 -0.07026,1.17026 0.35936,1.64811 l 0.271025,0.30144 -0.12233,0.16794 c -0.151925,0.20856 -0.179325,0.20843 -0.403748,-0.002 z m 5.113327,0.005 -0.130012,-0.16529 0.215159,-0.22086 c 0.661608,-0.67914 0.651798,-1.78734 -0.02262,-2.55545 l -0.200483,-0.22835 0.154553,-0.18367 0.154553,-0.18368 0.258508,0.28045 c 0.457257,0.49606 0.724467,1.28538 0.646079,1.90845 -0.05464,0.43433 -0.298584,0.94299 -0.599987,1.25111 -0.141275,0.14442 -0.276859,0.26258 -0.301298,0.26258 -0.02444,0 -0.102941,-0.0744 -0.174449,-0.16529 z m -4.451373,-0.36984 c -0.594813,-0.67746 -0.637387,-1.62296 -0.108189,-2.40258 0.279408,-0.41163 0.377038,-0.46127 0.534643,-0.2719 0.160454,0.1928 0.160437,0.25918 -6e-5,0.40435 -0.318514,0.28805 -0.487856,0.92475 -0.366158,1.37669 0.03876,0.14393 0.170713,0.37266 0.293237,0.50827 l 0.222777,0.24659 -0.121738,0.16305 c -0.175868,0.23556 -0.228681,0.23272 -0.454497,-0.0245 z m 3.747638,0.04 -0.110028,-0.18626 0.215419,-0.25167 c 0.469437,-0.54843 0.421469,-1.32223 -0.118334,-1.90892 l -0.142112,-0.15446 0.14715,-0.1699 c 0.08093,-0.0935 0.175011,-0.1699 0.209064,-0.1699 0.110926,0 0.490226,0.5566 0.602829,0.88462 0.148706,0.43318 0.140105,1.0441 -0.01973,1.40158 -0.124158,0.27768 -0.510381,0.74117 -0.61762,0.74117 -0.03113,0 -0.106126,-0.0838 -0.16664,-0.18626 z m -3.173123,-0.44701 c -0.443339,-0.48486 -0.443668,-1.27556 -8.51e-4,-1.76005 0.09899,-0.10828 0.145022,-0.12277 0.212385,-0.0669 0.187505,0.15561 0.20851,0.28545 0.08022,0.49587 -0.159626,0.26182 -0.159325,0.63992 8.51e-4,0.90243 l 0.124783,0.20467 -0.129222,0.18148 c -0.07107,0.0998 -0.136382,0.18147 -0.145136,0.18147 -0.0088,0 -0.07311,-0.0626 -0.143023,-0.13901 z m 2.732174,-0.0677 c -0.10954,-0.20341 -0.109069,-0.20973 0.02967,-0.39739 0.113409,-0.15339 0.134888,-0.24479 0.109807,-0.46728 -0.01714,-0.15212 -0.08772,-0.35599 -0.156827,-0.45305 l -0.125654,-0.17646 0.151286,-0.17588 c 0.14507,-0.16865 0.156174,-0.17145 0.270327,-0.0682 0.468094,0.42362 0.48907,1.31737 0.04238,1.80589 -0.166231,0.18179 -0.189249,0.17694 -0.320989,-0.0677 z M 35.373887,259.782 c -1.22676,-0.19624 -2.517845,-0.82673 -3.445438,-1.68257 -0.650213,-0.59992 -1.329469,-1.61589 -1.634637,-2.44494 -0.344121,-0.93487 -0.474217,-2.19573 -0.32902,-3.18876 0.333849,-2.28319 1.894265,-4.23861 4.043931,-5.06761 0.479599,-0.18496 1.640595,-0.44902 1.81663,-0.4132 0.04731,0.01 -0.09121,0.13471 -0.307815,0.27795 -0.479803,0.31728 -1.321289,1.15358 -1.666024,1.65576 -0.390169,0.56836 -0.777914,1.41753 -0.958763,2.0997 -0.14358,0.5416 -0.16379,0.736 -0.16379,1.57548 0,0.84018 0.02013,1.03341 0.164086,1.57546 0.478816,1.80288 1.645295,3.27972 3.268989,4.13877 0.862052,0.45608 1.801981,0.70427 2.718044,0.71771 0.26335,0.004 0.478818,0.0193 0.478818,0.0344 0,0.0616 -0.809006,0.39666 -1.328338,0.55006 -0.476984,0.14089 -0.69221,0.16689 -1.513689,0.18284 -0.5267,0.0102 -1.041045,0.005 -1.142984,-0.011 z m -7.815569,-0.79558 c 0,-0.12993 -0.166809,-0.18303 -0.279968,-0.0891 -0.135837,0.11273 -0.330279,-0.0752 -0.290904,-0.28119 0.02515,-0.13155 0.0064,-0.15291 -0.134369,-0.15291 -0.191834,0 -0.272717,-0.15094 -0.169473,-0.31626 0.09384,-0.15025 0.09027,-0.23965 -0.01429,-0.35848 -0.11606,-0.1319 -0.02312,-0.3898 0.120587,-0.33465 0.127705,0.049 0.217948,-0.0899 0.173492,-0.26702 -0.04201,-0.16739 0.182636,-0.31782 0.313028,-0.2096 0.111145,0.0922 0.281905,0.0153 0.281905,-0.12696 0,-0.0888 0.04468,-0.11695 0.185349,-0.11695 0.144163,0 0.185349,0.0274 0.185349,0.12356 0,0.1362 0.12076,0.16345 0.231881,0.0523 0.116338,-0.11634 0.349707,0.0778 0.35263,0.2934 0.0021,0.14647 0.0264,0.17614 0.132936,0.16154 0.184289,-0.0253 0.345683,0.34193 0.188864,0.42969 -0.129169,0.0723 -0.131738,0.17149 -0.0068,0.26284 0.138057,0.10095 0.02001,0.39031 -0.17022,0.41728 -0.113841,0.0161 -0.138879,0.0536 -0.125052,0.18692 0.02018,0.19465 -0.195297,0.35957 -0.314304,0.24057 -0.104305,-0.10431 -0.215795,-0.0802 -0.259034,0.0561 -0.04883,0.15386 -0.40159,0.17929 -0.401589,0.029 z m 0.375754,-0.585 c 0.13607,0 0.303861,-0.25743 0.303861,-0.46618 0,-0.32559 -0.24295,-0.54922 -0.543653,-0.50042 -0.388593,0.0631 -0.565436,0.45807 -0.345592,0.77194 0.110876,0.1583 0.321262,0.26278 0.44637,0.22169 0.04525,-0.0149 0.107812,-0.027 0.139014,-0.027 z m -3.094211,-1.23348 c 0,-0.26552 -0.209808,-0.36769 -0.395955,-0.19281 -0.174352,0.16379 -0.20628,0.16195 -0.485881,-0.028 -0.227117,-0.15433 -0.229387,-0.15984 -0.138346,-0.3359 0.138519,-0.26786 0.06409,-0.38824 -0.223122,-0.36085 -0.224425,0.0214 -0.242275,0.01 -0.331028,-0.21184 -0.124841,-0.31201 -0.119996,-0.34624 0.06065,-0.42855 0.119871,-0.0546 0.154459,-0.11657 0.154459,-0.2767 0,-0.11348 -0.02256,-0.20632 -0.05014,-0.20632 -0.02757,0 -0.109604,-0.0554 -0.182291,-0.12312 -0.115415,-0.10753 -0.123648,-0.14862 -0.065,-0.32436 0.09335,-0.27972 0.130528,-0.30733 0.317919,-0.23609 0.142724,0.0543 0.17748,0.0421 0.265955,-0.0929 0.08213,-0.12535 0.08816,-0.18521 0.03123,-0.31016 -0.101942,-0.22374 -0.09335,-0.24891 0.147714,-0.43278 l 0.218261,-0.16647 0.153332,0.14405 c 0.12743,0.11971 0.181889,0.13407 0.322344,0.085 0.129881,-0.0454 0.173489,-0.1053 0.188368,-0.25875 0.01917,-0.19765 0.0227,-0.19968 0.348641,-0.19968 0.339687,0 0.404288,0.0494 0.404288,0.30882 0,0.17999 0.142553,0.18368 0.288492,0.007 l 0.134032,-0.16184 0.222142,0.11835 c 0.328246,0.17487 0.372971,0.24917 0.282081,0.46859 -0.106927,0.25814 0.0019,0.38753 0.281892,0.33501 0.178629,-0.0335 0.213793,-0.017 0.292919,0.13781 0.04946,0.0967 0.108667,0.26302 0.131581,0.3695 0.03779,0.17559 0.02412,0.1997 -0.147017,0.25936 -0.260904,0.091 -0.262748,0.32607 -0.0033,0.42399 0.218242,0.0824 0.23062,0.19122 0.06359,0.55919 -0.112723,0.24833 -0.127981,0.25885 -0.287368,0.19826 -0.252809,-0.0961 -0.37319,0.0446 -0.275315,0.32188 0.06896,0.19534 0.06221,0.21503 -0.128774,0.37604 -0.241954,0.20397 -0.281806,0.20748 -0.459547,0.0405 -0.191811,-0.18019 -0.371262,-0.11123 -0.422595,0.1624 -0.04,0.21324 -0.04157,0.21413 -0.377176,0.21413 -0.332375,0 -0.337008,-0.002 -0.337008,-0.18317 z m 0.788299,-1.11393 c 0.589291,-0.3593 0.589291,-1.18595 0,-1.54525 -0.544265,-0.33184 -1.260082,0.0471 -1.324214,0.70104 -0.06744,0.6877 0.738358,1.20141 1.324214,0.84421 z"
       id="path831"
       inkscape:connector-curvature="0" />
  </g>
</svg>
